<svg xmlns="http://www.w3.org/2000/svg" width="260" height="180" viewBox="0 0 260 180"><rect width="100%" height="100%" fill="#DDDDDD"/><path fill="#999999" d="M69.56 96.67q.37 0 .66.29l1.8 1.96q-1.5 1.85-3.68 2.84-2.18.98-5.24.98-2.74 0-4.93-.93-2.18-.94-3.73-2.6-1.54-1.67-2.37-3.98-.82-2.31-.82-5.05 0-2.77.88-5.08.88-2.3 2.49-3.97 1.61-1.66 3.83-2.59 2.23-.92 4.93-.92 2.69 0 4.77.88 2.09.88 3.55 2.31l-1.53 2.13q-.14.2-.35.35-.21.16-.59.16-.25 0-.52-.15-.28-.14-.6-.35-.32-.22-.75-.47-.42-.26-.98-.47t-1.3-.36q-.74-.14-1.71-.14-1.65 0-3.02.59-1.37.58-2.35 1.7-.99 1.11-1.53 2.72-.55 1.6-.55 3.66 0 2.07.59 3.69.58 1.61 1.59 2.72 1 1.1 2.36 1.69t2.92.59q.94 0 1.7-.11.75-.1 1.39-.32t1.21-.57 1.13-.86q.17-.15.35-.24.19-.1.4-.1m8.26-4.93h7.92q0-.81-.23-1.54-.23-.72-.69-1.26-.46-.55-1.16-.86-.71-.32-1.64-.32-1.82 0-2.87 1.04-1.04 1.04-1.33 2.94m10.71 2.54h-10.8q.1 1.34.48 2.32.37.97.98 1.61.62.64 1.46.95.84.32 1.86.32t1.76-.24 1.29-.53.97-.52q.42-.24.81-.24.52 0 .78.39l1.21 1.53q-.7.81-1.57 1.37-.86.55-1.81.88-.94.33-1.92.47t-1.89.14q-1.82 0-3.39-.61-1.56-.6-2.72-1.78-1.15-1.19-1.82-2.93-.66-1.74-.66-4.04 0-1.78.58-3.35.58-1.58 1.66-2.74t2.63-1.84q1.56-.68 3.51-.68 1.65 0 3.04.52 1.4.53 2.4 1.54t1.57 2.48.57 3.36q0 .95-.2 1.28-.2.34-.78.34m7.83-8.2.26 1.97q.82-1.56 1.94-2.45 1.12-.9 2.65-.9 1.21 0 1.94.53l-.27 3.15q-.09.3-.25.43t-.43.13q-.26 0-.76-.09-.5-.08-.98-.08-.7 0-1.24.2-.54.21-.98.59-.43.38-.76.92-.33.55-.62 1.25v10.74h-4.2V85.03h2.46q.65 0 .9.23.26.23.34.82m14.79 16.66q-2.27 0-3.49-1.28-1.21-1.29-1.21-3.55v-9.74h-1.79q-.34 0-.58-.22t-.24-.66v-1.67l2.81-.46.88-4.76q.09-.34.33-.52.23-.19.61-.19h2.17v5.49h4.66v2.99h-4.66v9.45q0 .82.4 1.28t1.1.46q.39 0 .66-.09.26-.1.45-.2.2-.1.35-.2.16-.09.31-.09.19 0 .3.09.12.1.26.28l1.26 2.04q-.92.77-2.11 1.16t-2.47.39m6.97-17.71h4.22v17.44h-4.22zm4.8-5.09q0 .55-.22 1.02-.22.48-.59.84-.36.35-.86.57-.49.21-1.05.21-.55 0-1.03-.21-.48-.22-.84-.57-.36-.36-.57-.84-.21-.47-.21-1.02 0-.56.21-1.05t.57-.85.84-.57 1.03-.21q.56 0 1.05.21.5.21.86.57.37.36.59.85t.22 1.05m9.13 22.53h-4.2V88.19l-1.51-.24q-.5-.1-.79-.35-.3-.24-.3-.7v-1.72h2.6v-1.29q0-1.5.45-2.69t1.29-2.02 2.05-1.28q1.21-.44 2.72-.44 1.21 0 2.24.33l-.08 2.1q-.02.24-.14.39-.12.14-.31.22-.2.07-.45.1-.26.02-.55.02-.74 0-1.33.17-.59.16-1 .56-.4.4-.62 1.05-.21.66-.21 1.62v1.16h4.54v2.99h-4.4zm6.9-17.44h4.22v17.44h-4.22zm4.79-5.09q0 .55-.22 1.02-.22.48-.58.84-.37.35-.86.57-.5.21-1.06.21-.54 0-1.02-.21-.49-.22-.85-.57-.35-.36-.57-.84-.21-.47-.21-1.02 0-.56.21-1.05.22-.49.57-.85.36-.36.85-.57.48-.21 1.02-.21.56 0 1.06.21.49.21.86.57.36.36.58.85t.22 1.05m17.31 7.25-1.11 1.53q-.18.23-.36.37t-.52.14q-.32 0-.63-.2-.3-.19-.73-.44-.42-.25-1.01-.44-.59-.2-1.45-.2-1.11 0-1.94.4-.84.4-1.39 1.15t-.82 1.81-.27 2.4q0 1.4.29 2.49.3 1.08.86 1.82t1.36 1.13q.8.38 1.8.38 1.01 0 1.63-.25.62-.24 1.04-.54.43-.3.74-.55.32-.24.71-.24.51 0 .76.39l1.21 1.53q-.7.81-1.51 1.37-.82.55-1.69.88-.88.33-1.81.47-.92.14-1.84.14-1.62 0-3.04-.61-1.43-.6-2.5-1.76-1.07-1.15-1.69-2.83-.63-1.67-.63-3.82 0-1.92.56-3.56.55-1.64 1.62-2.84 1.07-1.19 2.65-1.87t3.64-.68q1.96 0 3.43.62 1.47.63 2.64 1.81m12 10.78v-2.95q-1.82.09-3.06.32t-1.99.58q-.75.36-1.07.84-.32.47-.32 1.03 0 1.11.65 1.59.66.47 1.71.47 1.29 0 2.24-.47.94-.46 1.84-1.41m-8.87-9.17-.75-1.34q3.01-2.76 7.24-2.76 1.53 0 2.74.51 1.21.5 2.04 1.39t1.27 2.13q.43 1.24.43 2.72v11.02h-1.91q-.59 0-.91-.18-.33-.18-.51-.72l-.38-1.26q-.66.6-1.29 1.05t-1.31.75q-.68.31-1.45.47-.78.16-1.71.16-1.11 0-2.04-.3-.94-.29-1.62-.89-.68-.59-1.05-1.48-.37-.88-.37-2.05 0-.67.22-1.32.22-.66.72-1.25.5-.6 1.3-1.12.8-.53 1.96-.92 1.17-.39 2.72-.64 1.54-.25 3.53-.3v-1.02q0-1.75-.75-2.59-.74-.84-2.16-.84-1.02 0-1.69.24t-1.18.53l-.92.54q-.42.24-.93.24-.44 0-.75-.23t-.49-.54m22.73 13.94q-2.28 0-3.5-1.28-1.21-1.29-1.21-3.55v-9.74h-1.79q-.34 0-.58-.22-.23-.22-.23-.66v-1.67l2.8-.46.89-4.76q.08-.34.32-.52.24-.19.61-.19h2.18v5.49h4.65v2.99h-4.65v9.45q0 .82.4 1.28t1.09.46q.39 0 .66-.09.26-.1.46-.2.19-.1.34-.2.16-.09.31-.09.19 0 .31.09.12.1.25.28l1.26 2.04q-.92.77-2.11 1.16t-2.46.39m10.15-11h7.92q0-.81-.23-1.54-.23-.72-.69-1.26-.46-.55-1.16-.86-.71-.32-1.65-.32-1.81 0-2.86 1.04t-1.33 2.94m10.71 2.54h-10.8q.1 1.34.48 2.32.37.97.98 1.61t1.46.95q.84.32 1.86.32t1.76-.24 1.29-.53.97-.52q.41-.24.81-.24.52 0 .78.39l1.2 1.53q-.69.81-1.56 1.37-.87.55-1.81.88t-1.92.47-1.9.14q-1.82 0-3.38-.61-1.56-.6-2.72-1.78-1.16-1.19-1.82-2.93t-.66-4.04q0-1.78.58-3.35.57-1.58 1.65-2.74t2.64-1.84q1.55-.68 3.51-.68 1.65 0 3.04.52 1.4.53 2.4 1.54t1.57 2.48.57 3.36q0 .95-.2 1.28-.21.34-.78.34"/></svg>